<svg width="180" height="180" viewBox="0 0 180 180" fill="none" xmlns="http://www.w3.org/2000/svg">
<path d="M180 90C180 139.706 139.706 180 90 180C40.2944 180 0 139.706 0 90C0 40.2944 40.2944 0 90 0C139.706 0 180 40.2944 180 90Z" fill="white"/>
<path d="M25.92 46.0704L154.44 54.1562V93.9587H159.84V49.0853L20.52 40.32V115.919H25.92V46.0704Z" fill="#474261"/>
<path d="M22.68 134.161L158.132 125.639L158.471 131.028L23.0191 139.55L22.68 134.161Z" fill="#474261"/>
<path d="M51.6263 77.04L60.12 94.32H63L69.84 79.2113L76.68 94.32H79.56L87.3338 77.04H84.8475L78.12 92.4863L71.1 77.04H68.58L61.56 92.4863L54.1125 77.04H51.6263Z" fill="#474261"/>
<path d="M90.36 77.04V94.32H106.2V92.52H92.52V77.04H90.36Z" fill="#474261"/>
<path d="M127.316 87.75C127.421 88.1325 127.474 88.6575 127.474 89.325C127.474 90.075 127.418 90.6788 127.305 91.1363C127.2 91.5938 126.96 91.9463 126.585 92.1938C126.21 92.4338 125.633 92.5988 124.853 92.6888C124.073 92.7713 123.011 92.8125 121.669 92.8125H116.516C115.316 92.8125 114.326 92.79 113.546 92.745C112.774 92.6925 112.17 92.5425 111.735 92.295C111.308 92.04 111.008 91.6238 110.835 91.0463C110.663 90.4688 110.576 89.6513 110.576 88.5938H108.416C108.416 89.9438 108.551 91.0238 108.821 91.8338C109.091 92.6438 109.534 93.255 110.149 93.6675C110.771 94.0725 111.604 94.3425 112.646 94.4775C113.689 94.6125 114.979 94.68 116.516 94.68H121.781C123.469 94.68 124.83 94.59 125.865 94.41C126.9 94.23 127.691 93.9338 128.239 93.5213C128.786 93.1088 129.154 92.5613 129.341 91.8788C129.536 91.1888 129.634 90.3375 129.634 89.325C129.634 88.395 129.555 87.6263 129.398 87.0188C129.248 86.4038 128.936 85.9163 128.464 85.5563C127.999 85.1963 127.294 84.9375 126.349 84.78C125.411 84.615 124.155 84.5213 122.58 84.4988L115.875 84.4088C114.645 84.3938 113.674 84.3525 112.961 84.285C112.249 84.21 111.72 84.0788 111.375 83.8913C111.038 83.6963 110.82 83.415 110.723 83.0475C110.625 82.68 110.576 82.1925 110.576 81.585C110.576 80.865 110.644 80.2988 110.779 79.8863C110.921 79.4738 111.199 79.1738 111.611 78.9863C112.024 78.7988 112.631 78.6788 113.434 78.6263C114.244 78.5738 115.32 78.5475 116.663 78.5475H121.365C122.468 78.5475 123.39 78.555 124.133 78.57C124.875 78.585 125.464 78.6863 125.899 78.8738C126.341 79.0613 126.656 79.4138 126.844 79.9313C127.039 80.4413 127.136 81.1988 127.136 82.2038H129.296C129.296 80.9063 129.165 79.8863 128.903 79.1438C128.648 78.4013 128.22 77.8538 127.62 77.5013C127.02 77.1488 126.21 76.9238 125.19 76.8263C124.17 76.7288 122.895 76.68 121.365 76.68H116.55C114.863 76.68 113.486 76.755 112.421 76.905C111.356 77.0475 110.531 77.2988 109.946 77.6588C109.369 78.0188 108.968 78.5175 108.743 79.155C108.525 79.7925 108.416 80.6025 108.416 81.585C108.416 82.485 108.495 83.235 108.653 83.835C108.818 84.435 109.14 84.915 109.62 85.275C110.1 85.6275 110.809 85.8863 111.746 86.0513C112.684 86.2163 113.925 86.31 115.47 86.3325L121.725 86.4225C123.068 86.445 124.125 86.4863 124.898 86.5463C125.67 86.5988 126.24 86.7188 126.608 86.9063C126.975 87.0863 127.211 87.3675 127.316 87.75Z" fill="#474261"/>
<path d="M43.245 110.52L40.5907 105.12H41.3677L43.695 109.947L45.8888 105.12H46.6763L48.87 109.947L50.9723 105.12H51.7493L49.32 110.52H48.42L46.2825 105.799L44.145 110.52H43.245Z" fill="#474261"/>
<path d="M52.695 110.52V105.12H57.9966V105.683H53.37V107.483H57.8032V108.045H53.37V109.958H58.095V110.52H52.695Z" fill="#474261"/>
<path fill-rule="evenodd" clip-rule="evenodd" d="M58.995 110.52V105.12H63.2981C63.7059 105.12 64.0399 105.159 64.3001 105.236C64.5626 105.311 64.7559 105.446 64.8802 105.64C65.0067 105.833 65.07 106.106 65.07 106.459C65.07 106.778 64.9962 107.042 64.8485 107.25C64.7009 107.459 64.4747 107.574 64.17 107.595C64.5684 107.635 64.8555 107.778 65.0313 108.024C65.2071 108.268 65.295 108.575 65.295 108.945C65.295 109.266 65.2575 109.53 65.1825 109.736C65.1098 109.942 64.9868 110.103 64.8134 110.218C64.6399 110.33 64.4044 110.409 64.1067 110.453C63.8114 110.498 63.4423 110.52 62.9993 110.52H58.995ZM59.67 107.37H62.8165C63.1798 107.37 63.4774 107.357 63.7095 107.331C63.9415 107.306 64.1138 107.229 64.2263 107.103C64.3388 106.976 64.395 106.762 64.395 106.459C64.395 106.223 64.361 106.049 64.293 105.939C64.2274 105.829 64.1149 105.759 63.9555 105.728C63.7962 105.698 63.577 105.683 63.2981 105.683H59.67V107.37ZM59.67 109.958H62.9993C63.3204 109.958 63.5852 109.949 63.7938 109.933C64.0048 109.916 64.17 109.877 64.2895 109.813C64.4114 109.75 64.497 109.65 64.5462 109.515C64.5954 109.376 64.62 109.186 64.62 108.945C64.62 108.697 64.5731 108.503 64.4794 108.365C64.388 108.227 64.2591 108.127 64.0927 108.066C63.9286 108.005 63.7376 107.968 63.5196 107.954C63.3016 107.94 63.0673 107.933 62.8165 107.933H59.67V109.958Z" fill="#474261"/>
<path d="M68.4661 110.52V105.12H69.1411V109.958H73.4161V110.52H68.4661Z" fill="#474261"/>
<path d="M74.3161 110.52V105.12H74.9911V110.52H74.3161Z" fill="#474261"/>
<path d="M76.3411 110.52V105.12H81.4317V105.683H77.0161V107.483H81.2313V108.045H77.0161V110.52H76.3411Z" fill="#474261"/>
<path d="M82.4161 110.52V105.12H87.7177V105.683H83.0911V107.483H87.5243V108.045H83.0911V109.958H87.8161V110.52H82.4161Z" fill="#474261"/>
<path d="M96.5102 108.959C96.5102 108.75 96.4938 108.586 96.461 108.467C96.4282 108.347 96.3544 108.259 96.2395 108.203C96.1247 108.145 95.9466 108.107 95.7052 108.091C95.4638 108.072 95.1333 108.059 94.7138 108.052L92.7591 108.024C92.2763 108.017 91.8884 107.988 91.5954 107.936C91.3024 107.884 91.0809 107.804 90.9309 107.693C90.7809 107.581 90.6802 107.431 90.6286 107.243C90.5794 107.056 90.5548 106.822 90.5548 106.54C90.5548 106.233 90.5888 105.98 90.6567 105.781C90.727 105.582 90.8524 105.426 91.0329 105.313C91.2157 105.201 91.4735 105.122 91.8063 105.078C92.1391 105.031 92.5692 105.008 93.0966 105.008H94.6013C95.0794 105.008 95.4778 105.023 95.7966 105.053C96.1153 105.084 96.3684 105.154 96.5559 105.264C96.7434 105.374 96.877 105.545 96.9567 105.777C97.0388 106.009 97.0798 106.328 97.0798 106.734H96.4048C96.4048 106.42 96.3743 106.183 96.3134 106.024C96.2548 105.862 96.1563 105.752 96.0181 105.693C95.8821 105.634 95.6981 105.603 95.4661 105.598C95.2341 105.593 94.9458 105.591 94.6013 105.591H93.1317C92.7122 105.591 92.3759 105.599 92.1227 105.616C91.872 105.632 91.6821 105.67 91.5532 105.728C91.4243 105.787 91.3376 105.881 91.2931 106.009C91.2509 106.138 91.2298 106.315 91.2298 106.54C91.2298 106.73 91.245 106.883 91.2755 106.997C91.3059 107.112 91.3739 107.2 91.4794 107.261C91.5872 107.32 91.7524 107.361 91.9751 107.384C92.1977 107.405 92.5013 107.418 92.8856 107.423L94.9809 107.451C95.4731 107.458 95.8657 107.487 96.1587 107.539C96.454 107.588 96.6743 107.669 96.8196 107.781C96.9673 107.894 97.0645 108.046 97.1114 108.238C97.1606 108.428 97.1852 108.668 97.1852 108.959C97.1852 109.275 97.1548 109.541 97.0938 109.757C97.0352 109.97 96.9204 110.141 96.7493 110.27C96.5782 110.399 96.3309 110.492 96.0075 110.548C95.6841 110.604 95.2587 110.633 94.7313 110.633H93.086C92.6055 110.633 92.2024 110.611 91.8766 110.569C91.5509 110.527 91.2907 110.443 91.0962 110.316C90.904 110.187 90.7657 109.996 90.6813 109.743C90.597 109.49 90.5548 109.152 90.5548 108.731H91.2298C91.2298 109.061 91.2567 109.316 91.3106 109.497C91.3645 109.677 91.4583 109.808 91.5919 109.887C91.7278 109.965 91.9165 110.011 92.1579 110.028C92.4016 110.042 92.711 110.049 93.086 110.049H94.6962C95.1157 110.049 95.4473 110.036 95.6911 110.01C95.9348 109.982 96.1153 109.931 96.2325 109.856C96.3497 109.778 96.4247 109.668 96.4575 109.525C96.4927 109.382 96.5102 109.193 96.5102 108.959Z" fill="#474261"/>
<path d="M100.708 110.633C100.181 110.633 99.747 110.596 99.4071 110.524C99.0673 110.453 98.8013 110.322 98.6091 110.13C98.4192 109.938 98.2856 109.661 98.2083 109.3C98.1333 108.939 98.0958 108.469 98.0958 107.89V105.12H98.7708V107.89C98.7708 108.289 98.7848 108.619 98.813 108.882C98.8411 109.144 98.8938 109.354 98.9712 109.511C99.0485 109.668 99.1587 109.785 99.3016 109.863C99.447 109.94 99.6345 109.99 99.8641 110.014C100.094 110.037 100.375 110.049 100.708 110.049H101.981C102.316 110.049 102.597 110.037 102.824 110.014C103.054 109.99 103.24 109.94 103.383 109.863C103.529 109.785 103.64 109.668 103.717 109.511C103.795 109.354 103.847 109.144 103.875 108.882C103.904 108.619 103.918 108.289 103.918 107.89V105.12H104.593V107.89C104.593 108.469 104.554 108.939 104.477 109.3C104.402 109.661 104.268 109.938 104.076 110.13C103.886 110.322 103.621 110.453 103.281 110.524C102.941 110.596 102.508 110.633 101.981 110.633H100.708Z" fill="#474261"/>
<path fill-rule="evenodd" clip-rule="evenodd" d="M105.76 110.52V105.12H109.374C109.901 105.12 110.325 105.146 110.647 105.197C110.97 105.249 111.215 105.336 111.381 105.458C111.548 105.577 111.66 105.74 111.719 105.946C111.777 106.15 111.807 106.404 111.807 106.709V106.85C111.807 107.14 111.776 107.388 111.715 107.591C111.657 107.793 111.542 107.956 111.371 108.08C111.2 108.204 110.952 108.296 110.629 108.354C110.306 108.411 109.88 108.439 109.353 108.439H106.435V110.52H105.76ZM111.132 106.709C111.132 106.486 111.111 106.308 111.068 106.175C111.026 106.041 110.942 105.94 110.815 105.872C110.689 105.804 110.5 105.76 110.249 105.739C109.999 105.715 109.663 105.704 109.244 105.704H106.435V107.855H109.244C109.663 107.855 109.999 107.842 110.249 107.816C110.5 107.788 110.689 107.739 110.815 107.669C110.942 107.596 111.026 107.494 111.068 107.363C111.111 107.229 111.132 107.058 111.132 106.85V106.709Z" fill="#474261"/>
<path fill-rule="evenodd" clip-rule="evenodd" d="M112.763 110.52V105.12H116.377C116.904 105.12 117.329 105.146 117.65 105.197C117.973 105.249 118.218 105.336 118.384 105.458C118.551 105.577 118.663 105.74 118.722 105.946C118.781 106.15 118.81 106.404 118.81 106.709V106.85C118.81 107.14 118.779 107.388 118.718 107.591C118.66 107.793 118.545 107.956 118.374 108.08C118.203 108.204 117.956 108.296 117.632 108.354C117.309 108.411 116.883 108.439 116.356 108.439H113.438V110.52H112.763ZM118.135 106.709C118.135 106.486 118.114 106.308 118.072 106.175C118.029 106.041 117.945 105.94 117.818 105.872C117.692 105.804 117.503 105.76 117.252 105.739C117.002 105.715 116.666 105.704 116.247 105.704H113.438V107.855H116.247C116.666 107.855 117.002 107.842 117.252 107.816C117.503 107.788 117.692 107.739 117.818 107.669C117.945 107.596 118.029 107.494 118.072 107.363C118.114 107.229 118.135 107.058 118.135 106.85V106.709Z" fill="#474261"/>
<path fill-rule="evenodd" clip-rule="evenodd" d="M122.139 110.633C121.612 110.633 121.178 110.596 120.838 110.524C120.499 110.453 120.233 110.322 120.04 110.13C119.85 109.938 119.717 109.661 119.64 109.3C119.565 108.939 119.527 108.469 119.527 107.89V107.75C119.527 107.272 119.55 106.871 119.597 106.547C119.644 106.222 119.725 105.957 119.84 105.753C119.955 105.549 120.111 105.393 120.308 105.285C120.507 105.177 120.756 105.105 121.056 105.067C121.356 105.027 121.717 105.008 122.139 105.008H123.556C123.978 105.008 124.339 105.027 124.639 105.067C124.939 105.105 125.187 105.177 125.384 105.285C125.583 105.393 125.74 105.549 125.855 105.753C125.97 105.957 126.051 106.222 126.098 106.547C126.145 106.871 126.168 107.272 126.168 107.75V107.89C126.168 108.469 126.129 108.939 126.052 109.3C125.977 109.661 125.843 109.938 125.651 110.13C125.461 110.322 125.197 110.453 124.857 110.524C124.517 110.596 124.083 110.633 123.556 110.633H122.139ZM122.139 110.049H123.556C123.891 110.049 124.174 110.037 124.403 110.014C124.633 109.99 124.819 109.94 124.962 109.863C125.108 109.785 125.218 109.668 125.293 109.511C125.37 109.354 125.423 109.144 125.451 108.882C125.479 108.619 125.493 108.289 125.493 107.89V107.75C125.493 107.337 125.479 106.997 125.451 106.73C125.423 106.463 125.37 106.252 125.293 106.097C125.218 105.943 125.108 105.83 124.962 105.76C124.819 105.687 124.633 105.641 124.403 105.623C124.174 105.602 123.891 105.591 123.556 105.591H122.139C121.804 105.591 121.522 105.602 121.292 105.623C121.062 105.641 120.875 105.687 120.729 105.76C120.586 105.83 120.476 105.943 120.399 106.097C120.324 106.252 120.272 106.463 120.244 106.73C120.216 106.997 120.202 107.337 120.202 107.75V107.89C120.202 108.289 120.216 108.619 120.244 108.882C120.272 109.144 120.324 109.354 120.399 109.511C120.476 109.668 120.586 109.785 120.729 109.863C120.875 109.94 121.062 109.99 121.292 110.014C121.522 110.037 121.804 110.049 122.139 110.049Z" fill="#474261"/>
<path fill-rule="evenodd" clip-rule="evenodd" d="M127.311 105.12H130.925C131.452 105.12 131.876 105.143 132.197 105.19C132.521 105.237 132.766 105.318 132.932 105.433C133.099 105.548 133.211 105.705 133.27 105.904C133.328 106.103 133.358 106.355 133.358 106.66V106.8C133.358 107.082 133.324 107.324 133.256 107.528C133.19 107.73 133.062 107.894 132.872 108.02C132.683 108.145 132.401 108.233 132.029 108.284L133.203 110.52H132.528L131.378 108.333C131.357 108.334 131.335 108.335 131.313 108.336C131.286 108.336 131.259 108.337 131.231 108.337H127.986V110.52H127.311V105.12ZM127.986 107.753H130.97C131.371 107.753 131.686 107.74 131.916 107.715C132.148 107.686 132.318 107.638 132.426 107.57C132.536 107.502 132.606 107.406 132.637 107.282C132.667 107.158 132.683 106.997 132.683 106.8V106.66C132.683 106.437 132.661 106.261 132.619 106.133C132.577 106.004 132.493 105.909 132.366 105.848C132.24 105.787 132.051 105.748 131.8 105.732C131.549 105.713 131.214 105.704 130.795 105.704H127.986V107.753Z" fill="#474261"/>
<path d="M136.993 110.52V105.683H134.293V105.12H140.368V105.683H137.668V110.52H136.993Z" fill="#474261"/>
</svg>
