<svg width="387" height="276" viewBox="0 0 387 276" fill="none" xmlns="http://www.w3.org/2000/svg">
<path d="M387 24.3477V39.3779L0 15.0293V0L387 24.3477Z" fill="white"/>
<path d="M387 24.717V148.996H372V23.9963H378.727L387 24.717Z" fill="white"/>
<rect x="6" y="260.668" width="377" height="15" transform="rotate(-3.6 6 260.668)" fill="white"/>
<path d="M128.5 102H135.5L155 145L174 102H181L159 150H151L132 108L113 150H105L81 102H88L109 145L128.5 102ZM189 150V102H195V145H233V150H189ZM271.25 123C274.542 123 277.365 123.135 279.719 123.406C282.073 123.677 284.052 124.083 285.656 124.625C287.281 125.146 288.573 125.802 289.531 126.594C290.49 127.385 291.229 128.292 291.75 129.312C292.271 130.312 292.604 131.438 292.75 132.688C292.917 133.938 293 135.292 293 136.75C293 138.208 292.865 139.583 292.594 140.875C292.344 142.146 291.885 143.312 291.219 144.375C290.552 145.438 289.646 146.385 288.5 147.219C287.354 148.052 285.896 148.76 284.125 149.344C282.354 149.927 280.219 150.365 277.719 150.656C275.24 150.969 272.333 151.125 269 151.125H261C258 151.125 255.375 151.01 253.125 150.781C250.875 150.552 248.938 150.208 247.312 149.75C245.688 149.271 244.344 148.677 243.281 147.969C242.219 147.24 241.365 146.396 240.719 145.438C240.094 144.458 239.656 143.354 239.406 142.125C239.156 140.875 239.031 139.5 239.031 138H245.031C245.031 139.875 245.302 141.344 245.844 142.406C246.385 143.469 247.281 144.271 248.531 144.812C249.781 145.333 251.417 145.667 253.438 145.812C255.479 145.938 258 146 261 146H269C272.5 146 275.406 145.833 277.719 145.5C280.031 145.167 281.875 144.635 283.25 143.906C284.625 143.177 285.594 142.229 286.156 141.062C286.719 139.875 287 138.438 287 136.75C287 135.062 286.802 133.656 286.406 132.531C286.031 131.406 285.271 130.51 284.125 129.844C283 129.177 281.406 128.708 279.344 128.438C277.281 128.146 274.583 128 271.25 128H263C259.333 128 256.188 127.865 253.562 127.594C250.958 127.323 248.771 126.938 247 126.438C245.229 125.917 243.812 125.281 242.75 124.531C241.688 123.76 240.875 122.885 240.312 121.906C239.771 120.927 239.417 119.844 239.25 118.656C239.083 117.448 239 116.146 239 114.75C239 113.292 239.125 111.938 239.375 110.688C239.646 109.438 240.135 108.312 240.844 107.312C241.552 106.292 242.521 105.385 243.75 104.594C244.979 103.802 246.552 103.146 248.469 102.625C250.406 102.083 252.729 101.677 255.438 101.406C258.146 101.135 261.333 101 265 101H271C274 101 276.625 101.115 278.875 101.344C281.125 101.552 283.062 101.896 284.688 102.375C286.312 102.833 287.656 103.417 288.719 104.125C289.802 104.812 290.656 105.646 291.281 106.625C291.927 107.583 292.375 108.677 292.625 109.906C292.875 111.135 293 112.5 293 114H287C287 112.125 286.729 110.656 286.188 109.594C285.646 108.531 284.75 107.74 283.5 107.219C282.25 106.677 280.604 106.344 278.562 106.219C276.521 106.073 274 106 271 106H265C261 106 257.708 106.146 255.125 106.438C252.542 106.708 250.5 107.177 249 107.844C247.5 108.51 246.458 109.406 245.875 110.531C245.292 111.656 245 113.062 245 114.75C245 115.792 245.073 116.719 245.219 117.531C245.365 118.344 245.656 119.062 246.094 119.688C246.552 120.292 247.188 120.802 248 121.219C248.812 121.635 249.885 121.979 251.219 122.25C252.552 122.521 254.177 122.719 256.094 122.844C258.031 122.948 260.333 123 263 123H271.25Z" fill="white"/>
<path d="M65.4688 180H67.6562L73.75 193.438L79.6875 180H81.875L75 195H72.5L66.5625 181.875L60.625 195H58.125L50.625 180H52.8125L59.375 193.438L65.4688 180ZM84.375 195V180H99.375V181.562H86.25V186.562H98.75V188.125H86.25V193.438H99.375V195H84.375ZM101.875 195V180H114.385C115.322 180 116.077 180.078 116.65 180.234C117.223 180.384 117.663 180.609 117.969 180.908C118.281 181.201 118.49 181.569 118.594 182.012C118.698 182.454 118.75 182.962 118.75 183.535C118.75 183.952 118.714 184.32 118.643 184.639C118.571 184.958 118.477 185.234 118.359 185.469C118.242 185.703 118.109 185.902 117.959 186.064C117.809 186.221 117.656 186.351 117.5 186.455C117.135 186.702 116.719 186.842 116.25 186.875C116.836 186.908 117.357 187.051 117.812 187.305C118.008 187.415 118.197 187.555 118.379 187.725C118.568 187.887 118.734 188.092 118.877 188.34C119.027 188.581 119.147 188.867 119.238 189.199C119.329 189.525 119.375 189.902 119.375 190.332C119.375 190.853 119.349 191.331 119.297 191.768C119.251 192.197 119.154 192.585 119.004 192.93C118.854 193.275 118.639 193.577 118.359 193.838C118.079 194.098 117.705 194.316 117.236 194.492C116.774 194.661 116.204 194.788 115.527 194.873C114.857 194.958 114.053 195 113.115 195H101.875ZM112.49 193.438C113.219 193.438 113.851 193.428 114.385 193.408C114.919 193.382 115.371 193.333 115.742 193.262C116.113 193.184 116.413 193.076 116.641 192.939C116.868 192.796 117.044 192.611 117.168 192.383C117.298 192.148 117.386 191.865 117.432 191.533C117.477 191.201 117.5 190.801 117.5 190.332C117.5 189.967 117.477 189.652 117.432 189.385C117.386 189.111 117.298 188.883 117.168 188.701C117.044 188.512 116.868 188.363 116.641 188.252C116.413 188.135 116.113 188.044 115.742 187.979C115.371 187.913 114.919 187.871 114.385 187.852C113.851 187.826 113.219 187.812 112.49 187.812H103.75V193.438H112.49ZM112.49 186.25C113.128 186.25 113.678 186.237 114.141 186.211C114.603 186.185 114.997 186.136 115.322 186.064C115.648 185.993 115.911 185.895 116.113 185.771C116.315 185.641 116.471 185.475 116.582 185.273C116.699 185.072 116.777 184.831 116.816 184.551C116.855 184.264 116.875 183.926 116.875 183.535C116.875 183.118 116.829 182.78 116.738 182.52C116.647 182.259 116.484 182.061 116.25 181.924C116.016 181.781 115.697 181.686 115.293 181.641C114.896 181.589 114.385 181.562 113.76 181.562H103.75V186.25H112.49ZM126.875 195V180H128.75V193.438H140.625V195H126.875ZM143.125 180H145V195H143.125V180ZM148.75 195V180H163.125V181.562H150.625V186.562H162.5V188.125H150.625V195H148.75ZM165.625 195V180H180.625V181.562H167.5V186.562H180V188.125H167.5V193.438H180.625V195H165.625ZM196.953 186.562C197.982 186.562 198.864 186.605 199.6 186.689C200.335 186.774 200.954 186.901 201.455 187.07C201.963 187.233 202.367 187.438 202.666 187.686C202.965 187.933 203.197 188.216 203.359 188.535C203.522 188.848 203.626 189.199 203.672 189.59C203.724 189.98 203.75 190.404 203.75 190.859C203.75 191.315 203.708 191.745 203.623 192.148C203.545 192.546 203.402 192.91 203.193 193.242C202.985 193.574 202.702 193.87 202.344 194.131C201.986 194.391 201.53 194.613 200.977 194.795C200.423 194.977 199.756 195.114 198.975 195.205C198.2 195.303 197.292 195.352 196.25 195.352H193.75C192.812 195.352 191.992 195.316 191.289 195.244C190.586 195.173 189.98 195.065 189.473 194.922C188.965 194.772 188.545 194.587 188.213 194.365C187.881 194.137 187.614 193.874 187.412 193.574C187.217 193.268 187.08 192.923 187.002 192.539C186.924 192.148 186.885 191.719 186.885 191.25H188.76C188.76 191.836 188.844 192.295 189.014 192.627C189.183 192.959 189.463 193.21 189.854 193.379C190.244 193.542 190.755 193.646 191.387 193.691C192.025 193.73 192.812 193.75 193.75 193.75H196.25C197.344 193.75 198.252 193.698 198.975 193.594C199.697 193.49 200.273 193.324 200.703 193.096C201.133 192.868 201.436 192.572 201.611 192.207C201.787 191.836 201.875 191.387 201.875 190.859C201.875 190.332 201.813 189.893 201.689 189.541C201.572 189.189 201.335 188.91 200.977 188.701C200.625 188.493 200.127 188.346 199.482 188.262C198.838 188.171 197.995 188.125 196.953 188.125H194.375C193.229 188.125 192.246 188.083 191.426 187.998C190.612 187.913 189.928 187.793 189.375 187.637C188.822 187.474 188.379 187.275 188.047 187.041C187.715 186.8 187.461 186.527 187.285 186.221C187.116 185.915 187.005 185.576 186.953 185.205C186.901 184.827 186.875 184.421 186.875 183.984C186.875 183.529 186.914 183.105 186.992 182.715C187.077 182.324 187.23 181.973 187.451 181.66C187.673 181.341 187.975 181.058 188.359 180.811C188.743 180.563 189.235 180.358 189.834 180.195C190.439 180.026 191.165 179.899 192.012 179.814C192.858 179.73 193.854 179.688 195 179.688H196.875C197.812 179.688 198.633 179.723 199.336 179.795C200.039 179.86 200.645 179.967 201.152 180.117C201.66 180.26 202.08 180.443 202.412 180.664C202.751 180.879 203.018 181.139 203.213 181.445C203.415 181.745 203.555 182.087 203.633 182.471C203.711 182.855 203.75 183.281 203.75 183.75H201.875C201.875 183.164 201.79 182.705 201.621 182.373C201.452 182.041 201.172 181.794 200.781 181.631C200.391 181.462 199.876 181.357 199.238 181.318C198.6 181.273 197.812 181.25 196.875 181.25H195C193.75 181.25 192.721 181.296 191.914 181.387C191.107 181.471 190.469 181.618 190 181.826C189.531 182.035 189.206 182.314 189.023 182.666C188.841 183.018 188.75 183.457 188.75 183.984C188.75 184.31 188.773 184.6 188.818 184.854C188.864 185.107 188.955 185.332 189.092 185.527C189.235 185.716 189.434 185.876 189.688 186.006C189.941 186.136 190.277 186.243 190.693 186.328C191.11 186.413 191.618 186.475 192.217 186.514C192.822 186.546 193.542 186.562 194.375 186.562H196.953ZM224.385 180V187.5C224.385 188.385 224.372 189.193 224.346 189.922C224.326 190.651 224.251 191.305 224.121 191.885C223.997 192.464 223.799 192.969 223.525 193.398C223.252 193.828 222.861 194.186 222.354 194.473C221.846 194.753 221.198 194.961 220.41 195.098C219.629 195.241 218.665 195.312 217.52 195.312H213.125C211.979 195.312 211.012 195.241 210.225 195.098C209.443 194.961 208.799 194.753 208.291 194.473C207.783 194.186 207.389 193.828 207.109 193.398C206.836 192.969 206.634 192.464 206.504 191.885C206.38 191.305 206.309 190.651 206.289 189.922C206.27 189.193 206.26 188.385 206.26 187.5V180H208.135V187.5C208.135 188.438 208.141 189.245 208.154 189.922C208.174 190.592 208.229 191.159 208.32 191.621C208.411 192.083 208.555 192.454 208.75 192.734C208.952 193.014 209.238 193.229 209.609 193.379C209.98 193.529 210.449 193.63 211.016 193.682C211.589 193.727 212.292 193.75 213.125 193.75H217.52C218.346 193.75 219.046 193.727 219.619 193.682C220.192 193.63 220.661 193.529 221.025 193.379C221.396 193.229 221.683 193.014 221.885 192.734C222.087 192.454 222.233 192.083 222.324 191.621C222.422 191.159 222.477 190.592 222.49 189.922C222.503 189.245 222.51 188.438 222.51 187.5L222.5 180H224.385ZM227.52 180H238.789C239.72 180 240.505 180.042 241.143 180.127C241.787 180.205 242.318 180.326 242.734 180.488C243.151 180.651 243.47 180.853 243.691 181.094C243.919 181.335 244.085 181.618 244.189 181.943C244.294 182.269 244.352 182.633 244.365 183.037C244.385 183.441 244.395 183.887 244.395 184.375C244.395 184.883 244.382 185.352 244.355 185.781C244.336 186.211 244.261 186.602 244.131 186.953C244.007 187.298 243.805 187.604 243.525 187.871C243.252 188.132 242.858 188.35 242.344 188.525C241.836 188.701 241.188 188.835 240.4 188.926C239.619 189.017 238.656 189.062 237.51 189.062H229.395V195H227.52V180ZM229.395 187.5H237.51C238.343 187.5 239.043 187.487 239.609 187.461C240.182 187.428 240.654 187.373 241.025 187.295C241.396 187.217 241.683 187.106 241.885 186.963C242.087 186.82 242.233 186.631 242.324 186.396C242.422 186.162 242.477 185.882 242.49 185.557C242.51 185.225 242.52 184.831 242.52 184.375C242.52 183.952 242.51 183.587 242.49 183.281C242.477 182.975 242.422 182.718 242.324 182.51C242.233 182.301 242.087 182.135 241.885 182.012C241.683 181.888 241.396 181.794 241.025 181.729C240.654 181.657 240.182 181.611 239.609 181.592C239.043 181.572 238.343 181.562 237.51 181.562H229.395V187.5ZM246.895 180H258.164C259.095 180 259.88 180.042 260.518 180.127C261.162 180.205 261.693 180.326 262.109 180.488C262.526 180.651 262.845 180.853 263.066 181.094C263.294 181.335 263.46 181.618 263.564 181.943C263.669 182.269 263.727 182.633 263.74 183.037C263.76 183.441 263.77 183.887 263.77 184.375C263.77 184.883 263.757 185.352 263.73 185.781C263.711 186.211 263.636 186.602 263.506 186.953C263.382 187.298 263.18 187.604 262.9 187.871C262.627 188.132 262.233 188.35 261.719 188.525C261.211 188.701 260.563 188.835 259.775 188.926C258.994 189.017 258.031 189.062 256.885 189.062H248.77V195H246.895V180ZM248.77 187.5H256.885C257.718 187.5 258.418 187.487 258.984 187.461C259.557 187.428 260.029 187.373 260.4 187.295C260.771 187.217 261.058 187.106 261.26 186.963C261.462 186.82 261.608 186.631 261.699 186.396C261.797 186.162 261.852 185.882 261.865 185.557C261.885 185.225 261.895 184.831 261.895 184.375C261.895 183.952 261.885 183.587 261.865 183.281C261.852 182.975 261.797 182.718 261.699 182.51C261.608 182.301 261.462 182.135 261.26 182.012C261.058 181.888 260.771 181.794 260.4 181.729C260.029 181.657 259.557 181.611 258.984 181.592C258.418 181.572 257.718 181.562 256.885 181.562H248.77V187.5ZM278.154 179.688C279.3 179.688 280.264 179.759 281.045 179.902C281.833 180.039 282.48 180.251 282.988 180.537C283.496 180.817 283.887 181.172 284.16 181.602C284.434 182.031 284.632 182.536 284.756 183.115C284.886 183.695 284.961 184.349 284.98 185.078C285.007 185.807 285.02 186.615 285.02 187.5C285.02 188.385 285.007 189.193 284.98 189.922C284.961 190.651 284.886 191.305 284.756 191.885C284.632 192.464 284.434 192.969 284.16 193.398C283.887 193.828 283.496 194.186 282.988 194.473C282.48 194.753 281.833 194.961 281.045 195.098C280.264 195.241 279.3 195.312 278.154 195.312H272.51C271.364 195.312 270.397 195.241 269.609 195.098C268.828 194.961 268.184 194.753 267.676 194.473C267.168 194.186 266.774 193.828 266.494 193.398C266.221 192.969 266.019 192.464 265.889 191.885C265.765 191.305 265.693 190.651 265.674 189.922C265.654 189.193 265.645 188.385 265.645 187.5C265.645 186.615 265.654 185.807 265.674 185.078C265.693 184.349 265.765 183.695 265.889 183.115C266.019 182.536 266.221 182.031 266.494 181.602C266.774 181.172 267.168 180.817 267.676 180.537C268.184 180.251 268.828 180.039 269.609 179.902C270.397 179.759 271.364 179.688 272.51 179.688H278.154ZM278.154 193.75C278.981 193.75 279.678 193.727 280.244 193.682C280.817 193.63 281.289 193.529 281.66 193.379C282.031 193.229 282.318 193.014 282.52 192.734C282.721 192.454 282.868 192.083 282.959 191.621C283.05 191.159 283.102 190.592 283.115 189.922C283.135 189.245 283.145 188.438 283.145 187.5C283.145 186.562 283.135 185.758 283.115 185.088C283.102 184.411 283.05 183.841 282.959 183.379C282.868 182.917 282.721 182.546 282.52 182.266C282.318 181.986 282.031 181.771 281.66 181.621C281.296 181.471 280.827 181.374 280.254 181.328C279.688 181.276 278.988 181.25 278.154 181.25H272.51C271.676 181.25 270.973 181.276 270.4 181.328C269.834 181.374 269.365 181.471 268.994 181.621C268.623 181.771 268.337 181.986 268.135 182.266C267.933 182.546 267.786 182.917 267.695 183.379C267.604 183.841 267.552 184.411 267.539 185.088C267.526 185.758 267.52 186.562 267.52 187.5C267.52 188.438 267.526 189.245 267.539 189.922C267.559 190.592 267.614 191.159 267.705 191.621C267.796 192.083 267.939 192.454 268.135 192.734C268.337 193.014 268.623 193.229 268.994 193.379C269.365 193.529 269.834 193.63 270.4 193.682C270.973 193.727 271.676 193.75 272.51 193.75H278.154ZM305.332 195H303.457V192.188C303.457 191.732 303.447 191.341 303.428 191.016C303.415 190.684 303.359 190.4 303.262 190.166C303.171 189.932 303.024 189.743 302.822 189.6C302.62 189.456 302.334 189.346 301.963 189.268C301.592 189.189 301.12 189.137 300.547 189.111C299.98 189.079 299.281 189.062 298.447 189.062H290.02V195H288.145V180H298.76C299.906 180 300.869 180.042 301.65 180.127C302.438 180.205 303.086 180.326 303.594 180.488C304.108 180.651 304.502 180.853 304.775 181.094C305.055 181.335 305.257 181.618 305.381 181.943C305.511 182.269 305.586 182.633 305.605 183.037C305.632 183.441 305.645 183.887 305.645 184.375C305.645 185 305.599 185.55 305.508 186.025C305.423 186.494 305.277 186.895 305.068 187.227C304.86 187.559 304.583 187.826 304.238 188.027C303.893 188.223 303.46 188.359 302.939 188.438C303.46 188.516 303.877 188.652 304.189 188.848C304.502 189.043 304.743 189.297 304.912 189.609C305.081 189.922 305.192 190.293 305.244 190.723C305.303 191.152 305.332 191.641 305.332 192.188V195ZM290.02 187.5H298.76C299.593 187.5 300.293 187.487 300.859 187.461C301.432 187.428 301.904 187.373 302.275 187.295C302.646 187.217 302.933 187.106 303.135 186.963C303.337 186.82 303.483 186.631 303.574 186.396C303.672 186.162 303.727 185.882 303.74 185.557C303.76 185.225 303.77 184.831 303.77 184.375C303.77 183.952 303.76 183.587 303.74 183.281C303.727 182.975 303.672 182.718 303.574 182.51C303.483 182.301 303.337 182.135 303.135 182.012C302.933 181.888 302.646 181.794 302.275 181.729C301.904 181.657 301.432 181.611 300.859 181.592C300.293 181.572 299.593 181.562 298.76 181.562H290.02V187.5ZM325.02 180V181.562H317.52V195H315.645V181.562H308.145V180H325.02Z" fill="white"/>
<path d="M15 5.4137V209.997H0V0.0709229L15 5.4137Z" fill="white"/>
</svg>
